<svg width="400" height="400" viewBox="0 0 400 400" fill="none" xmlns="http://www.w3.org/2000/svg">
<path d="M254.256 97.712L250.656 117.008H172.32V179.504C178.368 176.24 184.08 174.032 189.456 172.88C194.928 171.632 200.64 171.008 206.592 171.008C217.344 171.008 226.8 173.456 234.96 178.352C243.12 183.152 249.456 190.208 253.968 199.52C258.48 208.832 260.736 220.064 260.736 233.216C260.736 246.368 257.952 257.936 252.384 267.92C246.912 277.904 239.184 285.632 229.2 291.104C219.216 296.576 207.36 299.312 193.632 299.312C181.728 299.312 171.072 297.2 161.664 292.976C152.352 288.752 143.856 282.896 136.176 275.408L151.152 261.008C157.2 267.152 163.68 271.76 170.592 274.832C177.6 277.808 185.376 279.296 193.92 279.296C206.976 279.296 217.152 275.36 224.448 267.488C231.744 259.52 235.392 247.856 235.392 232.496C235.392 221.84 233.808 213.44 230.64 207.296C227.472 201.152 223.152 196.784 217.68 194.192C212.304 191.504 206.304 190.16 199.68 190.16C193.824 190.16 188.64 190.736 184.128 191.888C179.616 192.944 174.48 194.576 168.72 196.784H149.28V97.712H254.256Z" fill="white"/>
</svg>
