<svg width="400" height="400" viewBox="0 0 400 400" fill="none" xmlns="http://www.w3.org/2000/svg">
<path d="M200.4 94.544C221.808 94.544 237.984 103.376 248.928 121.04C259.872 138.704 265.344 163.952 265.344 196.784C265.344 229.712 259.872 255.056 248.928 272.816C237.984 290.48 221.808 299.312 200.4 299.312C179.088 299.312 162.912 290.48 151.872 272.816C140.928 255.056 135.456 229.712 135.456 196.784C135.456 163.952 140.928 138.704 151.872 121.04C162.912 103.376 179.088 94.544 200.4 94.544ZM200.4 113.984C188.208 113.984 178.608 120.464 171.6 133.424C164.592 146.288 161.088 167.408 161.088 196.784C161.088 211.664 161.856 224.384 163.392 234.944C164.928 245.504 167.28 254.096 170.448 260.72C173.712 267.248 177.792 272.048 182.688 275.12C187.68 278.192 193.584 279.728 200.4 279.728C208.656 279.728 215.712 276.896 221.568 271.232C227.52 265.568 232.032 256.64 235.104 244.448C238.272 232.16 239.856 216.272 239.856 196.784C239.856 177.008 238.464 161.024 235.68 148.832C232.992 136.64 228.72 127.808 222.864 122.336C217.104 116.768 209.616 113.984 200.4 113.984ZM229.632 121.04L235.968 142.208L172.896 269.936L163.968 253.088L229.632 121.04Z" fill="white"/>
</svg>
