<svg width="400" height="400" viewBox="0 0 400 400" fill="none" xmlns="http://www.w3.org/2000/svg">
<path d="M191.616 94.544C204.096 94.544 214.752 96.944 223.584 101.744C232.512 106.544 239.376 113.12 244.176 121.472C248.976 129.824 251.376 139.28 251.376 149.84C251.376 158.96 249.792 167.888 246.624 176.624C243.456 185.264 238.368 194.384 231.36 203.984C224.448 213.488 215.328 224.048 204 235.664C192.768 247.28 178.944 260.528 162.528 275.408H255.984L252.96 296H135.024V276.272C150 261.968 162.72 249.44 173.184 238.688C183.744 227.936 192.432 218.528 199.248 210.464C206.16 202.304 211.536 194.912 215.376 188.288C219.312 181.664 222.048 175.376 223.584 169.424C225.12 163.376 225.888 157.136 225.888 150.704C225.888 139.568 222.72 130.784 216.384 124.352C210.144 117.92 201.504 114.704 190.464 114.704C180.672 114.704 172.656 116.384 166.416 119.744C160.176 123.104 153.936 128.48 147.696 135.872L130.992 122.912C138.864 113.312 147.6 106.208 157.2 101.6C166.8 96.896 178.272 94.544 191.616 94.544Z" fill="white"/>
</svg>
