<svg width="400" height="400" viewBox="0 0 400 400" fill="none" xmlns="http://www.w3.org/2000/svg">
<path d="M191.328 94.544C203.808 94.544 214.56 96.8 223.584 101.312C232.704 105.728 239.76 111.728 244.752 119.312C249.744 126.8 252.24 135.056 252.24 144.08C252.24 152.048 250.464 159.296 246.912 165.824C243.36 172.352 238.656 177.728 232.8 181.952C226.944 186.176 220.512 188.96 213.504 190.304C221.28 190.88 228.576 193.088 235.392 196.928C242.208 200.672 247.776 206.048 252.096 213.056C256.416 219.968 258.576 228.56 258.576 238.832C258.576 250.256 255.696 260.576 249.936 269.792C244.176 278.912 236.112 286.112 225.744 291.392C215.472 296.672 203.472 299.312 189.744 299.312C178.704 299.312 167.664 297.2 156.624 292.976C145.68 288.752 136.416 282.032 128.832 272.816L145.104 259.568C150.768 266.192 157.488 271.136 165.264 274.4C173.136 277.664 181.104 279.296 189.168 279.296C202.992 279.296 213.792 275.696 221.568 268.496C229.344 261.2 233.232 251.312 233.232 238.832C233.232 229.424 231.408 221.984 227.76 216.512C224.208 211.04 219.36 207.152 213.216 204.848C207.072 202.448 200.064 201.248 192.192 201.248H175.488L178.512 182.096H190.176C196.608 182.096 202.656 180.896 208.32 178.496C214.08 176 218.784 172.16 222.432 166.976C226.08 161.792 227.904 155.312 227.904 147.536C227.904 136.592 224.256 128.24 216.96 122.48C209.664 116.72 200.832 113.84 190.464 113.84C181.824 113.84 174.288 115.376 167.856 118.448C161.424 121.424 154.944 125.984 148.416 132.128L135.024 117.296C143.472 109.328 152.448 103.568 161.952 100.016C171.456 96.368 181.248 94.544 191.328 94.544Z" fill="white"/>
</svg>
