<svg width="400" height="400" viewBox="0 0 400 400" fill="none" xmlns="http://www.w3.org/2000/svg">
<path d="M147.256 221.568C147.256 227.232 145.84 232.272 143.008 236.688C140.176 241.056 136.072 244.488 130.696 246.984C125.32 249.432 118.768 250.656 111.04 250.656C103.792 250.656 97.216 249.552 91.312 247.344C85.456 245.136 80.44 242.016 76.264 237.984L83.68 229.632C87.136 232.848 91.096 235.416 95.56 237.336C100.024 239.208 105.256 240.144 111.256 240.144C115.288 240.144 119.056 239.496 122.56 238.2C126.064 236.856 128.896 234.84 131.056 232.152C133.216 229.416 134.296 225.96 134.296 221.784C134.296 218.568 133.672 215.832 132.424 213.576C131.176 211.32 128.968 209.328 125.8 207.6C122.632 205.824 118.216 204.096 112.552 202.416C106.024 200.496 100.36 198.336 95.56 195.936C90.808 193.488 87.112 190.488 84.472 186.936C81.88 183.384 80.584 178.992 80.584 173.76C80.584 168.816 81.952 164.424 84.688 160.584C87.424 156.744 91.192 153.744 95.992 151.584C100.84 149.376 106.408 148.272 112.696 148.272C119.56 148.272 125.512 149.256 130.552 151.224C135.64 153.144 140.248 155.928 144.376 159.576L137.032 167.712C133.48 164.544 129.664 162.264 125.584 160.872C121.504 159.432 117.352 158.712 113.128 158.712C109.528 158.712 106.216 159.264 103.192 160.368C100.216 161.424 97.816 163.032 95.992 165.192C94.216 167.304 93.328 170.016 93.328 173.328C93.328 176.16 94.096 178.608 95.632 180.672C97.168 182.736 99.76 184.632 103.408 186.36C107.056 188.04 112.024 189.816 118.312 191.688C123.448 193.176 128.2 195.048 132.568 197.304C136.984 199.512 140.536 202.536 143.224 206.376C145.912 210.168 147.256 215.232 147.256 221.568ZM218.264 249V201.984H180.824V249H168.368V149.856H180.824V191.76H218.264V149.856H230.72V249H218.264ZM281.352 148.272C287.592 148.272 292.968 149.4 297.48 151.656C302.04 153.864 305.568 156.864 308.064 160.656C310.56 164.4 311.808 168.528 311.808 173.04C311.808 177.024 310.92 180.648 309.144 183.912C307.368 187.176 305.016 189.864 302.088 191.976C299.16 194.088 295.944 195.48 292.44 196.152C296.328 196.44 299.976 197.544 303.384 199.464C306.792 201.336 309.576 204.024 311.736 207.528C313.896 210.984 314.976 215.28 314.976 220.416C314.976 226.128 313.536 231.288 310.656 235.896C307.776 240.456 303.744 244.056 298.56 246.696C293.424 249.336 287.424 250.656 280.56 250.656C275.04 250.656 269.52 249.6 264 247.488C258.528 245.376 253.896 242.016 250.104 237.408L258.24 230.784C261.072 234.096 264.432 236.568 268.32 238.2C272.256 239.832 276.24 240.648 280.272 240.648C287.184 240.648 292.584 238.848 296.472 235.248C300.36 231.6 302.304 226.656 302.304 220.416C302.304 215.712 301.392 211.992 299.568 209.256C297.792 206.52 295.368 204.576 292.296 203.424C289.224 202.224 285.72 201.624 281.784 201.624H273.432L274.944 192.048H280.776C283.992 192.048 287.016 191.448 289.848 190.248C292.728 189 295.08 187.08 296.904 184.488C298.728 181.896 299.64 178.656 299.64 174.768C299.64 169.296 297.816 165.12 294.168 162.24C290.52 159.36 286.104 157.92 280.92 157.92C276.6 157.92 272.832 158.688 269.616 160.224C266.4 161.712 263.16 163.992 259.896 167.064L253.2 159.648C257.424 155.664 261.912 152.784 266.664 151.008C271.416 149.184 276.312 148.272 281.352 148.272Z" fill="white"/>
</svg>
