<svg width="400" height="400" viewBox="0 0 400 400" fill="none" xmlns="http://www.w3.org/2000/svg">
<path d="M147.256 221.568C147.256 227.232 145.84 232.272 143.008 236.688C140.176 241.056 136.072 244.488 130.696 246.984C125.32 249.432 118.768 250.656 111.04 250.656C103.792 250.656 97.216 249.552 91.312 247.344C85.456 245.136 80.44 242.016 76.264 237.984L83.68 229.632C87.136 232.848 91.096 235.416 95.56 237.336C100.024 239.208 105.256 240.144 111.256 240.144C115.288 240.144 119.056 239.496 122.56 238.2C126.064 236.856 128.896 234.84 131.056 232.152C133.216 229.416 134.296 225.96 134.296 221.784C134.296 218.568 133.672 215.832 132.424 213.576C131.176 211.32 128.968 209.328 125.8 207.6C122.632 205.824 118.216 204.096 112.552 202.416C106.024 200.496 100.36 198.336 95.56 195.936C90.808 193.488 87.112 190.488 84.472 186.936C81.88 183.384 80.584 178.992 80.584 173.76C80.584 168.816 81.952 164.424 84.688 160.584C87.424 156.744 91.192 153.744 95.992 151.584C100.84 149.376 106.408 148.272 112.696 148.272C119.56 148.272 125.512 149.256 130.552 151.224C135.64 153.144 140.248 155.928 144.376 159.576L137.032 167.712C133.48 164.544 129.664 162.264 125.584 160.872C121.504 159.432 117.352 158.712 113.128 158.712C109.528 158.712 106.216 159.264 103.192 160.368C100.216 161.424 97.816 163.032 95.992 165.192C94.216 167.304 93.328 170.016 93.328 173.328C93.328 176.16 94.096 178.608 95.632 180.672C97.168 182.736 99.76 184.632 103.408 186.36C107.056 188.04 112.024 189.816 118.312 191.688C123.448 193.176 128.2 195.048 132.568 197.304C136.984 199.512 140.536 202.536 143.224 206.376C145.912 210.168 147.256 215.232 147.256 221.568ZM218.264 249V201.984H180.824V249H168.368V149.856H180.824V191.76H218.264V149.856H230.72V249H218.264ZM285.888 148.272C296.592 148.272 304.68 152.688 310.152 161.52C315.624 170.352 318.359 182.976 318.359 199.392C318.359 215.856 315.624 228.528 310.152 237.408C304.68 246.24 296.592 250.656 285.888 250.656C275.232 250.656 267.144 246.24 261.624 237.408C256.152 228.528 253.416 215.856 253.416 199.392C253.416 182.976 256.152 170.352 261.624 161.52C267.144 152.688 275.232 148.272 285.888 148.272ZM285.888 157.992C279.792 157.992 274.992 161.232 271.488 167.712C267.984 174.144 266.232 184.704 266.232 199.392C266.232 206.832 266.616 213.192 267.384 218.472C268.152 223.752 269.328 228.048 270.912 231.36C272.544 234.624 274.584 237.024 277.032 238.56C279.528 240.096 282.48 240.864 285.888 240.864C290.016 240.864 293.544 239.448 296.472 236.616C299.448 233.784 301.704 229.32 303.24 223.224C304.824 217.08 305.616 209.136 305.616 199.392C305.616 189.504 304.92 181.512 303.528 175.416C302.184 169.32 300.048 164.904 297.12 162.168C294.24 159.384 290.496 157.992 285.888 157.992ZM300.504 161.52L303.672 172.104L272.136 235.968L267.672 227.544L300.504 161.52Z" fill="white"/>
</svg>
