<svg width="400" height="400" viewBox="0 0 400 400" fill="none" xmlns="http://www.w3.org/2000/svg">
<path d="M147.256 221.568C147.256 227.232 145.84 232.272 143.008 236.688C140.176 241.056 136.072 244.488 130.696 246.984C125.32 249.432 118.768 250.656 111.04 250.656C103.792 250.656 97.216 249.552 91.312 247.344C85.456 245.136 80.44 242.016 76.264 237.984L83.68 229.632C87.136 232.848 91.096 235.416 95.56 237.336C100.024 239.208 105.256 240.144 111.256 240.144C115.288 240.144 119.056 239.496 122.56 238.2C126.064 236.856 128.896 234.84 131.056 232.152C133.216 229.416 134.296 225.96 134.296 221.784C134.296 218.568 133.672 215.832 132.424 213.576C131.176 211.32 128.968 209.328 125.8 207.6C122.632 205.824 118.216 204.096 112.552 202.416C106.024 200.496 100.36 198.336 95.56 195.936C90.808 193.488 87.112 190.488 84.472 186.936C81.88 183.384 80.584 178.992 80.584 173.76C80.584 168.816 81.952 164.424 84.688 160.584C87.424 156.744 91.192 153.744 95.992 151.584C100.84 149.376 106.408 148.272 112.696 148.272C119.56 148.272 125.512 149.256 130.552 151.224C135.64 153.144 140.248 155.928 144.376 159.576L137.032 167.712C133.48 164.544 129.664 162.264 125.584 160.872C121.504 159.432 117.352 158.712 113.128 158.712C109.528 158.712 106.216 159.264 103.192 160.368C100.216 161.424 97.816 163.032 95.992 165.192C94.216 167.304 93.328 170.016 93.328 173.328C93.328 176.16 94.096 178.608 95.632 180.672C97.168 182.736 99.76 184.632 103.408 186.36C107.056 188.04 112.024 189.816 118.312 191.688C123.448 193.176 128.2 195.048 132.568 197.304C136.984 199.512 140.536 202.536 143.224 206.376C145.912 210.168 147.256 215.232 147.256 221.568ZM218.264 249V201.984H180.824V249H168.368V149.856H180.824V191.76H218.264V149.856H230.72V249H218.264ZM312.816 149.856L311.016 159.504H271.848V190.752C274.872 189.12 277.728 188.016 280.416 187.44C283.152 186.816 286.008 186.504 288.984 186.504C294.36 186.504 299.088 187.728 303.168 190.176C307.248 192.576 310.416 196.104 312.672 200.76C314.928 205.416 316.056 211.032 316.056 217.608C316.056 224.184 314.664 229.968 311.88 234.96C309.144 239.952 305.28 243.816 300.288 246.552C295.296 249.288 289.368 250.656 282.504 250.656C276.552 250.656 271.224 249.6 266.52 247.488C261.864 245.376 257.616 242.448 253.776 238.704L261.264 231.504C264.288 234.576 267.528 236.88 270.984 238.416C274.488 239.904 278.376 240.648 282.648 240.648C289.176 240.648 294.264 238.68 297.912 234.744C301.56 230.76 303.384 224.928 303.384 217.248C303.384 211.92 302.592 207.72 301.008 204.648C299.424 201.576 297.264 199.392 294.528 198.096C291.84 196.752 288.84 196.08 285.528 196.08C282.6 196.08 280.008 196.368 277.752 196.944C275.496 197.472 272.928 198.288 270.048 199.392H260.328V149.856H312.816Z" fill="white"/>
</svg>
