<svg width="400" height="400" viewBox="0 0 400 400" fill="none" xmlns="http://www.w3.org/2000/svg">
<path d="M147.256 221.568C147.256 227.232 145.84 232.272 143.008 236.688C140.176 241.056 136.072 244.488 130.696 246.984C125.32 249.432 118.768 250.656 111.04 250.656C103.792 250.656 97.216 249.552 91.312 247.344C85.456 245.136 80.44 242.016 76.264 237.984L83.68 229.632C87.136 232.848 91.096 235.416 95.56 237.336C100.024 239.208 105.256 240.144 111.256 240.144C115.288 240.144 119.056 239.496 122.56 238.2C126.064 236.856 128.896 234.84 131.056 232.152C133.216 229.416 134.296 225.96 134.296 221.784C134.296 218.568 133.672 215.832 132.424 213.576C131.176 211.32 128.968 209.328 125.8 207.6C122.632 205.824 118.216 204.096 112.552 202.416C106.024 200.496 100.36 198.336 95.56 195.936C90.808 193.488 87.112 190.488 84.472 186.936C81.88 183.384 80.584 178.992 80.584 173.76C80.584 168.816 81.952 164.424 84.688 160.584C87.424 156.744 91.192 153.744 95.992 151.584C100.84 149.376 106.408 148.272 112.696 148.272C119.56 148.272 125.512 149.256 130.552 151.224C135.64 153.144 140.248 155.928 144.376 159.576L137.032 167.712C133.48 164.544 129.664 162.264 125.584 160.872C121.504 159.432 117.352 158.712 113.128 158.712C109.528 158.712 106.216 159.264 103.192 160.368C100.216 161.424 97.816 163.032 95.992 165.192C94.216 167.304 93.328 170.016 93.328 173.328C93.328 176.16 94.096 178.608 95.632 180.672C97.168 182.736 99.76 184.632 103.408 186.36C107.056 188.04 112.024 189.816 118.312 191.688C123.448 193.176 128.2 195.048 132.568 197.304C136.984 199.512 140.536 202.536 143.224 206.376C145.912 210.168 147.256 215.232 147.256 221.568ZM218.264 249V201.984H180.824V249H168.368V149.856H180.824V191.76H218.264V149.856H230.72V249H218.264ZM281.496 148.272C287.736 148.272 293.064 149.472 297.48 151.872C301.944 154.272 305.376 157.56 307.776 161.736C310.176 165.912 311.376 170.64 311.376 175.92C311.376 180.48 310.584 184.944 309 189.312C307.416 193.632 304.872 198.192 301.368 202.992C297.912 207.744 293.352 213.024 287.688 218.832C282.072 224.64 275.16 231.264 266.952 238.704H313.68L312.168 249H253.2V239.136C260.688 231.984 267.048 225.72 272.28 220.344C277.56 214.968 281.904 210.264 285.312 206.232C288.768 202.152 291.456 198.456 293.376 195.144C295.344 191.832 296.712 188.688 297.48 185.712C298.248 182.688 298.632 179.568 298.632 176.352C298.632 170.784 297.048 166.392 293.88 163.176C290.76 159.96 286.44 158.352 280.92 158.352C276.024 158.352 272.016 159.192 268.896 160.872C265.776 162.552 262.656 165.24 259.536 168.936L251.184 162.456C255.12 157.656 259.488 154.104 264.288 151.8C269.088 149.448 274.824 148.272 281.496 148.272Z" fill="white"/>
</svg>
