<svg fill="none" height="400" viewBox="0 0 400 400" width="400" xmlns="http://www.w3.org/2000/svg"><path d="m147.256 221.568c0 5.664-1.416 10.704-4.248 15.12-2.832 4.368-6.936 7.8-12.312 10.296-5.376 2.448-11.928 3.672-19.656 3.672-7.248 0-13.824-1.104-19.728-3.312-5.856-2.208-10.872-5.328-15.048-9.36l7.416-8.352c3.456 3.216 7.416 5.784 11.88 7.704 4.464 1.872 9.696 2.808 15.696 2.808 4.032 0 7.8-.648 11.304-1.944 3.504-1.344 6.336-3.36 8.496-6.048 2.16-2.736 3.24-6.192 3.24-10.368 0-3.216-.624-5.952-1.872-8.208s-3.456-4.248-6.624-5.976c-3.168-1.776-7.584-3.504-13.248-5.184-6.528-1.92-12.192-4.08-16.992-6.48-4.752-2.448-8.448-5.448-11.088-9-2.592-3.552-3.888-7.944-3.888-13.176 0-4.944 1.368-9.336 4.104-13.176s6.504-6.84 11.304-9c4.848-2.208 10.416-3.312 16.704-3.312 6.864 0 12.816.984 17.856 2.952 5.088 1.92 9.696 4.704 13.824 8.352l-7.344 8.136c-3.552-3.168-7.368-5.448-11.448-6.84-4.08-1.44-8.232-2.16-12.456-2.16-3.6 0-6.912.552-9.936 1.656-2.976 1.056-5.376 2.664-7.2 4.824-1.776 2.112-2.664 4.824-2.664 8.136 0 2.832.768 5.28 2.304 7.344s4.128 3.96 7.776 5.688c3.648 1.68 8.616 3.456 14.904 5.328 5.136 1.488 9.888 3.36 14.256 5.616 4.416 2.208 7.968 5.232 10.656 9.072 2.688 3.792 4.032 8.856 4.032 15.192zm88.792-22.032c0 9.984-1.368 18.84-4.104 26.568-2.688 7.68-6.744 13.704-12.168 18.072-5.424 4.32-12.168 6.48-20.232 6.48-8.016 0-14.76-2.112-20.232-6.336-5.424-4.272-9.504-10.224-12.24-17.856-2.688-7.632-4.032-16.56-4.032-26.784 0-10.032 1.344-18.912 4.032-26.64 2.736-7.728 6.816-13.776 12.24-18.144 5.472-4.416 12.216-6.624 20.232-6.624 8.064 0 14.808 2.136 20.232 6.408s9.48 10.248 12.168 17.928c2.736 7.68 4.104 16.656 4.104 26.928zm-13.104 0c0-13.2-1.824-23.304-5.472-30.312-3.6-7.008-9.576-10.512-17.928-10.512s-14.352 3.528-18 10.584c-3.6 7.056-5.4 17.184-5.4 30.384s1.872 23.256 5.616 30.168c3.744 6.864 9.672 10.296 17.784 10.296 8.352 0 14.328-3.456 17.928-10.368 3.648-6.96 5.472-17.04 5.472-30.24zm62.944-51.264c10.704 0 18.792 4.416 24.264 13.248s8.207 21.456 8.207 37.872c0 16.464-2.735 29.136-8.207 38.016-5.472 8.832-13.56 13.248-24.264 13.248-10.656 0-18.744-4.416-24.264-13.248-5.472-8.88-8.208-21.552-8.208-38.016 0-16.416 2.736-29.04 8.208-37.872 5.52-8.832 13.608-13.248 24.264-13.248zm0 9.72c-6.096 0-10.896 3.24-14.4 9.72-3.504 6.432-5.256 16.992-5.256 31.68 0 7.44.384 13.8 1.152 19.08s1.944 9.576 3.528 12.888c1.632 3.264 3.672 5.664 6.12 7.2 2.496 1.536 5.448 2.304 8.856 2.304 4.128 0 7.656-1.416 10.584-4.248 2.976-2.832 5.232-7.296 6.768-13.392 1.584-6.144 2.376-14.088 2.376-23.832 0-9.888-.696-17.88-2.088-23.976-1.344-6.096-3.48-10.512-6.408-13.248-2.88-2.784-6.624-4.176-11.232-4.176zm14.616 3.528 3.168 10.584-31.536 63.864-4.464-8.424z" fill="#fff"/></svg>