<svg width="400" height="400" viewBox="0 0 400 400" fill="none" xmlns="http://www.w3.org/2000/svg">
<path d="M147.256 221.568C147.256 227.232 145.84 232.272 143.008 236.688C140.176 241.056 136.072 244.488 130.696 246.984C125.32 249.432 118.768 250.656 111.04 250.656C103.792 250.656 97.216 249.552 91.312 247.344C85.456 245.136 80.44 242.016 76.264 237.984L83.68 229.632C87.136 232.848 91.096 235.416 95.56 237.336C100.024 239.208 105.256 240.144 111.256 240.144C115.288 240.144 119.056 239.496 122.56 238.2C126.064 236.856 128.896 234.84 131.056 232.152C133.216 229.416 134.296 225.96 134.296 221.784C134.296 218.568 133.672 215.832 132.424 213.576C131.176 211.32 128.968 209.328 125.8 207.6C122.632 205.824 118.216 204.096 112.552 202.416C106.024 200.496 100.36 198.336 95.56 195.936C90.808 193.488 87.112 190.488 84.472 186.936C81.88 183.384 80.584 178.992 80.584 173.76C80.584 168.816 81.952 164.424 84.688 160.584C87.424 156.744 91.192 153.744 95.992 151.584C100.84 149.376 106.408 148.272 112.696 148.272C119.56 148.272 125.512 149.256 130.552 151.224C135.64 153.144 140.248 155.928 144.376 159.576L137.032 167.712C133.48 164.544 129.664 162.264 125.584 160.872C121.504 159.432 117.352 158.712 113.128 158.712C109.528 158.712 106.216 159.264 103.192 160.368C100.216 161.424 97.816 163.032 95.992 165.192C94.216 167.304 93.328 170.016 93.328 173.328C93.328 176.16 94.096 178.608 95.632 180.672C97.168 182.736 99.76 184.632 103.408 186.36C107.056 188.04 112.024 189.816 118.312 191.688C123.448 193.176 128.2 195.048 132.568 197.304C136.984 199.512 140.536 202.536 143.224 206.376C145.912 210.168 147.256 215.232 147.256 221.568ZM236.048 199.536C236.048 209.52 234.68 218.376 231.944 226.104C229.256 233.784 225.2 239.808 219.776 244.176C214.352 248.496 207.608 250.656 199.544 250.656C191.528 250.656 184.784 248.544 179.312 244.32C173.888 240.048 169.808 234.096 167.072 226.464C164.384 218.832 163.04 209.904 163.04 199.68C163.04 189.648 164.384 180.768 167.072 173.04C169.808 165.312 173.888 159.264 179.312 154.896C184.784 150.48 191.528 148.272 199.544 148.272C207.608 148.272 214.352 150.408 219.776 154.68C225.2 158.952 229.256 164.928 231.944 172.608C234.68 180.288 236.048 189.264 236.048 199.536ZM222.944 199.536C222.944 186.336 221.12 176.232 217.472 169.224C213.872 162.216 207.896 158.712 199.544 158.712C191.192 158.712 185.192 162.24 181.544 169.296C177.944 176.352 176.144 186.48 176.144 199.68C176.144 212.88 178.016 222.936 181.76 229.848C185.504 236.712 191.432 240.144 199.544 240.144C207.896 240.144 213.872 236.688 217.472 229.776C221.12 222.816 222.944 212.736 222.944 199.536ZM282.144 148.272L292.224 152.52L265.872 215.232H318.792V224.88H253.056V216.096L282.144 148.272ZM305.976 187.08V249H294.312L294.24 217.536L295.896 187.08H305.976Z" fill="white"/>
</svg>
